<svg width="16" height="16" viewBox="0 0 16 16" fill="none" xmlns="http://www.w3.org/2000/svg">
<path fill-rule="evenodd" clip-rule="evenodd" d="M14.2913 15.7083L9.33301 10.75L10.7497 9.33333L15.708 14.2917L14.2913 15.7083Z" />
<path fill-rule="evenodd" clip-rule="evenodd" d="M6.49991 10.5374C8.72973 10.5374 10.5374 8.72973 10.5374 6.49991C10.5374 4.27009 8.72973 2.46246 6.49991 2.46246C4.27009 2.46246 2.46246 4.27009 2.46246 6.49991C2.46246 8.72973 4.27009 10.5374 6.49991 10.5374ZM6.49991 12.5103C9.81937 12.5103 12.5103 9.81937 12.5103 6.49991C12.5103 3.18045 9.81937 0.489502 6.49991 0.489502C3.18045 0.489502 0.489502 3.18045 0.489502 6.49991C0.489502 9.81937 3.18045 12.5103 6.49991 12.5103Z" />
</svg>
