<svg width="128" height="128" viewBox="0 0 128 128" fill="none" xmlns="http://www.w3.org/2000/svg">
<g id="Group 433">
<circle id="Ellipse 17" cx="64" cy="64" r="64" fill="#BCEB49"/>
<path id="Vector" d="M88.8856 31.8062H41.8911V33.0831C44.8922 34.4583 45.189 36.6193 45.2219 37.4052V37.6344V37.6998V91.7254C45.2219 91.7254 45.2219 91.7581 45.2219 91.7908V92.02C45.2219 92.8059 44.8922 94.9669 41.8911 96.3421V97.619H62.2719V96.3421C59.5347 95.0651 59.04 93.166 58.974 92.2165V69.6895H75.1995C75.1995 69.6895 77.1782 69.5258 78.8931 71.916H80.2122V57.1818H78.8931C77.2112 59.5392 75.1995 59.4083 75.1995 59.4083H58.974V37.7326H77.7058C83.1143 37.7326 88.6218 40.5812 91.0951 41.7272L92.3154 41.3015L88.8856 31.8389V31.8062Z" fill="black"/>
</g>
</svg>
