<svg width="18" height="18" viewBox="0 0 18 18" fill="none" xmlns="http://www.w3.org/2000/svg">
<g id="Group 276">
<g id="Rectangle 176">
<path d="M8.09961 13.5H9.89961V8.10001H8.09961V13.5Z" fill="black"/>
<path d="M8.09961 6.3H9.89961V4.5H8.09961V6.3Z" fill="black"/>
</g>
<path id="Vector" d="M8.991 0C4.023 0 0 4.032 0 9C0 13.968 4.023 18 8.991 18C13.968 18 18 13.968 18 9C18 4.032 13.968 0 8.991 0ZM9 16.2C5.022 16.2 1.8 12.978 1.8 9C1.8 5.022 5.022 1.8 9 1.8C12.978 1.8 16.2 5.022 16.2 9C16.2 12.978 12.978 16.2 9 16.2Z" fill="black"/>
</g>
</svg>
