<svg width="25" height="24" viewBox="0 0 25 24" fill="none" xmlns="http://www.w3.org/2000/svg">
<path id="Vector" d="M12.6089 23.2174C12.5704 23.2531 12.5341 23.2869 12.5 23.3185C12.4659 23.2869 12.4296 23.2531 12.3911 23.2174C12.1097 22.956 11.714 22.5874 11.2568 22.1589C10.3418 21.3013 9.18243 20.2053 8.20036 19.2475C8.04481 19.0957 7.85611 18.917 7.64129 18.7136C6.64687 17.7722 5.09278 16.3008 3.67615 14.5088C1.94551 12.3196 0.5 9.74688 0.5 7.19346C0.5 3.47462 3.37474 0.5 6.875 0.5C8.55274 0.5 9.85919 1.13265 10.7533 1.77322C11.2004 2.09347 11.5409 2.41347 11.7683 2.65165C11.8818 2.77055 11.9666 2.86848 12.0217 2.93505C12.0493 2.96832 12.0694 2.99369 12.082 3.00986L12.0952 3.02702L12.0969 3.02936L12.0971 3.02966L12.0973 3.02991L12.0975 3.03011L12.0975 3.03022L12.5 3.57856L12.9025 3.03022L12.9025 3.03011L12.9027 3.02991L12.9029 3.02966L12.9031 3.02936L12.9048 3.02702L12.918 3.00986C12.9306 2.99369 12.9507 2.96832 12.9783 2.93505C13.0334 2.86848 13.1182 2.77055 13.2317 2.65165C13.4591 2.41347 13.7996 2.09347 14.2467 1.77322C15.1408 1.13265 16.4473 0.5 18.125 0.5C21.6253 0.5 24.5 3.47462 24.5 7.19346C24.5 9.74688 23.0545 12.3196 21.3239 14.5088C19.9072 16.3008 18.3531 17.7721 17.3587 18.7136C17.1439 18.917 16.9552 19.0957 16.7996 19.2475C15.8176 20.2053 14.6582 21.3013 13.7432 22.1589C13.286 22.5874 12.8903 22.956 12.6089 23.2174Z" stroke="#919191"/>
</svg>
