<svg width="16" height="18" viewBox="0 0 16 18" fill="none" xmlns="http://www.w3.org/2000/svg">
<path id="Vector" d="M16 1.7H10.423C10.0704 0.714 9.14691 0 8.05556 0C6.9642 0 6.04074 0.714 5.68815 1.7H0V9.35V17.5H16V1.7ZM8.05556 1.7C8.51728 1.7 8.89506 2.0825 8.89506 2.55C8.89506 3.0175 8.51728 3.4 8.05556 3.4C7.59383 3.4 7.21605 3.0175 7.21605 2.55C7.21605 2.0825 7.59383 1.7 8.05556 1.7ZM6.37654 13.6L3.01852 10.2L4.20222 9.0015L6.37654 11.1945L11.9089 5.593L13.0926 6.8L6.37654 13.6Z" fill="black"/>
</svg>
