<svg width="16" height="18" viewBox="0 0 16 18" fill="none" xmlns="http://www.w3.org/2000/svg">
<path id="Vector" d="M13.3333 1.8V0H2.66667V1.8C1.77778 1.8 0.444444 1.8 0 1.8V16C1.33333 16 1.2 16 2.66667 16V18H4.44444V16H11.5556V18H13.3333V16C14.8 16 14.6667 16 16 16V1.8C15.1111 1.8 14.6667 1.8 13.3333 1.8ZM4.44444 13.5C3.95556 13.5 3.55556 13.095 3.55556 12.6C3.55556 12.105 3.95556 11.7 4.44444 11.7C4.93333 11.7 5.33333 12.105 5.33333 12.6C5.33333 13.095 4.93333 13.5 4.44444 13.5ZM11.5556 13.5C11.0667 13.5 10.6667 13.095 10.6667 12.6C10.6667 12.105 11.0667 11.7 11.5556 11.7C12.0444 11.7 12.4444 12.105 12.4444 12.6C12.4444 13.095 12.0444 13.5 11.5556 13.5ZM14 9.9H2V5.4H14V9.9Z" fill="black"/>
</svg>
