<svg width="22" height="22" viewBox="0 0 22 22" fill="none" xmlns="http://www.w3.org/2000/svg">
<g id="Storytelling" clip-path="url(#clip0_296_295)">
<path id="Vector" d="M10.9998 0L10.4484 1.2819L9.1665 1.83333L10.4484 2.38477L10.9998 3.66667L11.5513 2.38477L12.8332 1.83333L11.5513 1.2819L10.9998 0ZM6.42546 0.00179036L4.77474 0.800293L7.9598 7.38704L9.61051 6.58854L6.42546 0.00179036ZM15.5563 0.00179036L12.3713 6.58854L14.022 7.38704L17.207 0.800293L15.5563 0.00179036ZM1.46973 1.06706L-0.0234375 2.13053L1.0472 3.63623L2.54036 2.57275L1.46973 1.06706ZM20.512 1.06706L19.4414 2.57275L20.9364 3.63623L22.007 2.13053L20.512 1.06706ZM3.60384 4.06592L2.10889 5.12939L3.70231 7.36914L5.19727 6.30745L3.60384 4.06592ZM18.3779 4.06592L16.7845 6.30745L18.2777 7.36914L19.8729 5.12939L18.3779 4.06592ZM0.916504 9.17025L0.94694 21.0529L9.40283 21.0565C9.71571 21.6193 10.3099 22.0036 10.9998 22.0036C11.6772 22.0036 12.2615 21.6329 12.5789 21.0869H19.2498C20.2628 21.0869 21.0832 21.0833 21.0832 21.0833V9.17025H14.6665H11.9165V19.2536H10.0832V9.17025H7.33317H0.916504Z" fill="#8763ed"/>
</g>
<defs>
<clipPath id="clip0_296_295">
<rect width="22" height="22" fill="white"/>
</clipPath>
</defs>
</svg>
