<svg width="15" height="16" viewBox="0 0 15 16" fill="none" xmlns="http://www.w3.org/2000/svg">
<path id="Vector" d="M7.72037 0C7.24838 0 6.79572 0.179107 6.46198 0.497918C6.12823 0.81673 5.94074 1.24913 5.94074 1.7C5.94074 2.15087 6.12823 2.58327 6.46198 2.90208C6.79572 3.22089 7.24838 3.4 7.72037 3.4C8.19236 3.4 8.64501 3.22089 8.97876 2.90208C9.3125 2.58327 9.5 2.15087 9.5 1.7C9.5 1.24913 9.3125 0.81673 8.97876 0.497918C8.64501 0.179107 8.19236 0 7.72037 0ZM5.33889 4.1V10.9H7.11853H9.78797H11.0636L13.4741 14.7366L15 13.8634L12.0716 9.2H9.78797V4.1H5.33889ZM3.55926 6.09717C1.48866 6.79927 0 8.68405 0 10.9C0 13.7127 2.39449 16 5.33889 16C7.65864 16 9.63171 14.578 10.3667 12.6H8.40285C7.78532 13.6115 6.65048 14.3 5.33889 14.3C3.37596 14.3 1.77963 12.7751 1.77963 10.9C1.77963 9.6471 2.50038 8.56304 3.55926 7.97314V6.09717Z" fill="black"/>
</svg>
