<svg width="82" height="10" viewBox="0 0 82 10" fill="none" xmlns="http://www.w3.org/2000/svg">
<g id="Layer_1" clip-path="url(#clip0_360_21778)">
<path id="Vector" d="M10.0356 0.135207H8.52734V0.323795C8.97154 0.526889 9.01547 0.850874 9.02035 0.966928V1.00078V1.01528V8.99401C9.02035 8.99401 9.02035 8.99884 9.02035 9.00368V9.03753C9.02035 9.15358 8.97154 9.47273 8.52734 9.67583V9.86441H11.544V9.67583C11.1388 9.48724 11.0656 9.20677 11.0558 9.06654V0.928243C11.0656 0.792847 11.1437 0.507547 11.544 0.318959V0.130371H10.0356V0.135207Z" fill="black"/>
<path id="Vector_2" d="M57.7598 0.135207H56.2515V0.323795C56.6957 0.526889 56.7396 0.850874 56.7445 0.966928V1.00078V1.01528V8.99401C56.7445 8.99401 56.7445 8.99884 56.7445 9.00368V9.03753C56.7445 9.15358 56.6957 9.47273 56.2515 9.67583V9.86441H59.2681V9.67583C58.8629 9.48724 58.7897 9.20677 58.7799 9.06654V0.928243C58.7897 0.792847 58.8678 0.507547 59.2681 0.318959V0.130371H57.7598V0.135207Z" fill="black"/>
<path id="Vector_3" d="M44.834 0.135207H43.3257V0.323795C43.7699 0.526889 43.8138 0.850874 43.8187 0.966928V1.00078V1.01528V8.99401C43.8187 8.99401 43.8187 8.99884 43.8187 9.00368V9.03753C43.8187 9.15358 43.7699 9.47273 43.3257 9.67583V9.86441H46.3423V9.67583C45.9371 9.48724 45.8639 9.20677 45.8542 9.06654V0.928243C45.8639 0.792847 45.942 0.507547 46.3423 0.318959V0.130371H44.834V0.135207Z" fill="black"/>
<path id="Vector_4" d="M21.7799 0.135207H20.2716V0.323795C20.7158 0.531725 20.7598 0.850874 20.7646 0.966928V1.00078V1.01528V8.20581L16.1616 0.135207H13.1255V0.323795C13.5697 0.531725 13.6136 0.758998 13.6185 0.836367V0.860545V0.870216V8.99401C13.6185 8.99401 13.6185 8.99884 13.6185 9.00851V9.04236C13.6185 9.15842 13.5697 9.47757 13.1255 9.6855V9.87408H16.1421V9.6855C15.737 9.49691 15.6637 9.21644 15.654 9.07621V2.38859L19.9202 9.86441H23.0832V9.67583C22.805 9.50174 22.8099 9.13424 22.8099 9.13424V0.928243C22.8196 0.792847 22.8977 0.507547 23.298 0.318959V0.130371H21.7897L21.7799 0.135207Z" fill="black"/>
<path id="Vector_5" d="M82.0002 0.323842V0.135254H78.9835V0.323842C79.4277 0.526937 79.4717 0.850921 79.4766 0.966975V1.00082V1.01533V8.20585L74.8735 0.135254H71.8374V0.323842C72.2816 0.531772 72.3255 0.759045 72.3304 0.836415V0.860592V0.870264V8.99405C72.3304 8.99405 72.3304 8.99889 72.3304 9.00856V9.04241C72.3304 9.15847 72.2816 9.47761 71.8374 9.68554V9.87413H74.854V9.68554C74.4489 9.49696 74.3757 9.21649 74.3659 9.07626V2.38864L78.6321 9.86446H81.7951V9.67587C81.5169 9.52113 81.5218 9.13429 81.5218 9.13429V0.928291C81.5315 0.792894 81.6096 0.507594 82.0099 0.319006L82.0002 0.323842Z" fill="black"/>
<path id="Vector_6" d="M6.95577 0.135254H0V0.323842C0.444193 0.526937 0.488124 0.846086 0.493006 0.96214V0.995989V1.00566V8.98438C0.493006 8.98438 0.493006 8.98922 0.493006 8.99405V9.0279C0.493006 9.14396 0.444193 9.46311 0 9.6662V9.85479H3.01661V9.6662C2.61146 9.47761 2.53825 9.19715 2.52848 9.05692V5.73003H4.93006C4.93006 5.73003 5.22293 5.70585 5.47675 6.05885H5.672V3.88284H5.47675C5.22781 4.231 4.93006 4.21166 4.93006 4.21166H2.52848V1.0105H5.30103C6.10155 1.0105 6.91672 1.43119 7.28281 1.60044L7.46342 1.53758L6.95577 0.140089V0.135254Z" fill="black"/>
<path id="Vector_7" d="M54.6895 0.135254H52.2684H47.8167L47.3481 1.41669L47.5239 1.47955C47.9925 1.32481 49.0907 1.02017 49.9254 1.0105H50.233V8.98922C50.233 8.98922 50.233 8.99405 50.233 8.99889V9.03274C50.233 9.14879 50.1841 9.46794 49.74 9.67104V9.85962H52.7566V9.67104C52.3514 9.48245 52.2782 9.20199 52.2684 9.06175V1.0105H52.576C53.4106 1.02017 54.5138 1.32481 54.9775 1.47955L55.1533 1.41669L54.6847 0.135254H54.6895Z" fill="black"/>
<path id="Vector_8" d="M29.7513 5.77839C29.7513 5.77839 30.0442 5.75421 30.298 6.10721H30.4933V3.93119H30.298C30.0491 4.27935 29.7513 4.26001 29.7513 4.26001H27.3498V1.0105H29.7513C30.5372 1.0105 31.4207 1.35382 31.8356 1.53758L32.0162 1.47471L31.5281 0.135254H24.8213V0.323842C25.2655 0.526937 25.3094 0.850921 25.3143 0.966975V1.00082V1.01533V8.99405C25.3143 8.99405 25.3143 8.99889 25.3143 9.00856V9.04241C25.3143 9.15847 25.2655 9.47761 24.8213 9.68554V9.87413H31.6892L32.1627 8.57336L31.9821 8.5105C31.5623 8.67491 30.6349 8.99889 29.8197 8.99889H27.3449V5.78806H29.7465L29.7513 5.77839Z" fill="black"/>
<path id="Vector_9" d="M65.6135 0C62.7141 0 60.3613 2.23888 60.3613 5C60.3613 7.76112 62.7141 10 65.6135 10C68.513 10 70.8658 7.76112 70.8658 5C70.8658 2.23888 68.513 0 65.6135 0ZM67.322 8.93133C65.4769 9.64217 63.7099 8.33172 62.6994 6.21373C61.7134 4.13443 62.1576 1.83269 63.993 1.12186C65.799 0.420696 67.8052 1.65861 68.7229 3.81528C69.6406 5.97195 69.377 8.14313 67.322 8.93617V8.93133Z" fill="black"/>
<path id="Vector_10" d="M37.0828 0.135254H33.4072V0.323842C33.8514 0.526937 33.8953 0.850921 33.9002 0.966975V1.00082V1.01533V8.99405C33.9002 8.99405 33.9002 8.99889 33.9002 9.00856V9.04241C33.9002 9.15847 33.8514 9.47761 33.4072 9.68554V9.87413H37.0828C39.9042 9.87413 42.1935 7.69812 42.1935 5.00953C42.1935 2.32094 39.909 0.135254 37.0828 0.135254ZM38.7424 8.82965C38.4154 8.95537 38.1079 8.99405 37.7711 9.01823H35.9357V1.04918H36.785C38.1371 1.17491 39.4258 2.24841 40.1092 3.84415C41.0024 5.9428 40.7486 8.05595 38.7473 8.82481L38.7424 8.82965Z" fill="black"/>
</g>
<defs>
<clipPath id="clip0_360_21778">
<rect width="82" height="10" fill="white"/>
</clipPath>
</defs>
</svg>
