<?xml version="1.0" encoding="utf-8"?>
<!-- Generator: Adobe Illustrator 27.9.0, SVG Export Plug-In . SVG Version: 6.00 Build 0)  -->
<svg version="1.1" id="Layer_1" xmlns="http://www.w3.org/2000/svg" xmlns:xlink="http://www.w3.org/1999/xlink" x="0px" y="0px"
	 viewBox="0 0 206 203" style="enable-background:new 0 0 206 203;" xml:space="preserve">
<style type="text/css">
	.st0{fill:#F87B36;}
	.st1{fill-rule:evenodd;clip-rule:evenodd;fill:#BCEB49;}
	.st2{fill:#323234;}
</style>
<g>
	<path class="st0" d="M40.8,148.4l2.5-1.9l1.2-1.9l3.7,1.9v1.9l-1.9,3.1l-1.9,1.2l-3.7-1.2V148.4z"/>
	<path class="st0" d="M31.5,148.4H29l-0.6-0.6l-3.1-1.9l-2.5,2.5l1.9,2.5h5.6L31.5,148.4z"/>
	<path class="st0" d="M5.5,148.4l-5-3.7L3,149l-1.2,2.5l2.5,2.5h3.1l1.9-1.2l-0.6-1.9L5.5,148.4z"/>
	<path class="st0" d="M47.6,70.4l-5.6-5h-3.7L37.1,68l-2.5,2.5l-1.9,1.2v1.9v1.9V81l1.2,1.9l4.3,2.5l1.9,6.8L34.6,94l2.5,3.1
		l3.1,3.7l6.8-1.2c0.6-0.2,2.4-0.7,4.3-1.2c2-0.5,2.5-1,2.5-1.2V94c0-1.9-1.2-3.7-1.2-5v-8l1.2-3.1l-2.5-2.5L47.6,70.4z"/>
	<path class="st0" d="M30.3,69.2h-2.5L24.7,68l-2.5-0.6h-3.1l-1.9,4.3l-1.9,3.1h4.3l2.5-1.2l5,1.2l3.1-4.3V69.2z"/>
	<path class="st0" d="M29.6,77.2l-3.7,0.6v1.9l-1.9,2.5l1.9,3.1l4.3,1.2v4.3l5-1.2l0.6-3.1l-4.3-1.2l-1.9-5V77.2z"/>
	<path class="st0" d="M22.2,89.6h-3.1l-1.2,1.2L21,94L22.2,89.6z"/>
	<path class="st0" d="M12.3,86.5l-3.7-1.2L8,84.7l-1.9,0.6l4.3,3.1h1.9l3.1,2.5V89l-0.6-3.1L12.3,86.5z"/>
	<path class="st0" d="M17.9,80.3l1.9-0.6l1.2,0.6v1.9L17.9,80.3z"/>
	<path class="st0" d="M29.6,107.6l-2.5-3.7l4.3,1.9l1.2,1.9l3.7-0.6l-0.6,2.5h-3.1l-3.1,1.2V107.6z"/>
	<path class="st0" d="M48.8,112.5v-3.1l0.6-0.6l3.1,0.6l1.2,1.2l3.7,0.6l1.9,3.1l-2.5,2.5l-4.3,1.2l-1.2,1.2l-3.7,3.1l-6.2,3.7v-2.5
		l-4.3-1.2l-1.9-0.6l-3.7-3.7l4.3-1.2l4.3-3.1h3.7L48.8,112.5z"/>
	<path class="st0" d="M41.4,106.9l-3.1,1.9l1.9,1.2h2.5l3.1,0.6l1.2-1.2l-1.2-1.9h-1.9L41.4,106.9z"/>
	<path class="st0" d="M61.2,104.5l-2.5-3.1l2.5-1.9l2.5-2.5l1.9-3.1l2.8,0.6h0.9h0.6l1.2,0.6h4.3l1.9,1.9l3.1,1.2l1.9,1.2l1.2,1.9
		l-0.6,2.5l-2.5,1.9l2.5,1.9l-1.9,0.6l-0.6,1.2v3.1l1.9,5.6v3.7l-1.9,4.3l-5,6.8h-4.3l-2.5,4.3l-4.3,0.6l-5-2.5l6.2-2.5l-3.7-3.7
		l0.6-3.7h1.2v-3.7l-2.5-2.5l1.2-2.5l1.2-3.1l-1.9-1.2l-0.6-4.9V104.5z"/>
	<path class="st0" d="M42,129.2l-3.7-2.5l-0.6,3.1l0.6,3.1l3.7-1.2V129.2z"/>
	<path class="st0" d="M11.1,155.8l-0.6-2.5v-0.6l3.1,2.5v1.9L11.1,155.8z"/>
	<path class="st0" d="M22.2,161.4l-1.2-1.9l-3.7-0.9l1.2,1.5l1.2,1.2H22.2z"/>
</g>
<path class="st1" d="M86,98.9l-3.1-3.1l-12.4-8v-3.7l1.9-1.9l-0.6-3.7l0.6-2.5l-1.9-5l1.2-5.6l4.3-2.5h-1.2l-4.3,1.2v-6.2l1.2-3.1
	l-1.2-5l1.2-2.5l5-1.2l5.6-3.1h2.5l2.5-0.6L89,37l1.9-2.5l1.9-6.8l1.9-1.9h5l6.2-8l5-5.6l4.9-6.8l1.9-1.9l3.1-3.1v5l2.5,1.9l3.1-1.2
	l0.6,3.1l1.2,2.5l1.9,3.1l2.5,4.3l1.9,1.2l2.5-3.7l1.9-1.9l3.7,1.9l-1.2,1.2l-1.2,4.3L141,24h3.1l1.2,1.9l2.5,1.9l1.9-1.9l1.9-1.9
	l3.1,1.2l2.5-1.2l1.9,1.9c0.2,1,0.7,3.2,1.2,3.7c0.5,0.5,0.6,3.9,0.6,5.6l2.5,5.6h5l2.5,2.5v3.1h3.1c1,0,3.2,0.2,3.7,1.2
	c0.3,0.6,0.4,1.3,0.6,1.9c0.2,0.8,0.3,1.5,0.7,1.8c0.5,0.5,0.2,4.7,0,6.8l-2.5,2.5l-2.5,1.2l-0.6,3.1h-2.5l-1.2,3.1l1.2,6.8l0.6,1.9
	l-3.1,3.1l-1.2,2.5h2.5l2.5,0.6V89l-2.5,3.7l2.5,3.1l3.1-0.6l2.5-2.5l3.7,1.9l3.7,3.1l4.9,3.1h2.5c1,0.4,3.2,1.2,3.7,1.2
	s2.7,0.8,3.7,1.2l4.3,1.9l1.9,0.6v2.5l-6.2,3.7l-1.9,1.2l-1.9,2.5l3.1,1.9l1.9,3.7v2.5l-1.2,4.9l-1.9,5h-1.2l-0.6,3.1l1.9,6.2
	l-1.9,2.5l0.6,1.2l1.2,1.2l-3.7,4.3l0.6,2.5l-0.6,2.5l-2.5,2.5l-3.1,3.1v4.3l-5.6-1.2l-1.2-0.6l-0.6,1.9l-1.2,6.8l-2.5,3.1h-2.5
	l-1.9,2.5v1.9l-5-1.9l-0.6,0.6h-4.3l-3.1,1.2v1.9l-2.5,2.5l-4.3,1.9v3.7l0.6,1.2l-3.7,2.5H146l-4.3,2.5l1.2,3.7l-1.2,1.2l-2.5-2.5
	l-5-1.2l-2.5-1.2l-1.2-3.1l-6.2-3.1h-3.7l-1.9,1.2v2.5h-4.9l-5.6,2.5l-6.8,1.2l-1.9,1.2l-3.1-1.2l-3.1-1.2l-3.1-5l-3.1-2.5l-5-2.5
	l0.6-1.9l-0.6-2.5l-3.7-0.6l-1.2-1.9l1.9-2.5v-4.3l1.9-2.5l-1.9-1.2l0.6-1.2l3.1-0.6l1.9-2.5l-3.7-0.6l1.2-2.5h-2.5h-1.2l-2.5,3.1
	l-3.1,3.1l-0.6,1.2l-3.1-3.1l1.9-2.5H68V162v-2.5v-3.7v-2.5l-1.2-3.1h-1.9v1.9l1.9,1.2v5h-1.9l-1.2-3.7l-1.9-2.5l-1.2,1.2l1.9,1.9
	h-3.1l-2.5,0.6l-1.2,2.5l-1.2-3.1l1.2-3.1v-4.3l-1.2-2.5l3.7-0.6l2.5,0.6l6.2-0.6l9.3,0.6h5l-5-2.5l-4.3-3.1l-0.6-3.1l2.8-3.7h1.5
	l5-6.8l1.9-4.3v-3.7l-1.9-5.6v-3.1l0.6-1.2l1.2-0.6l-0.8-0.8l0.8-2.3l0.1-0.2l0.5-0.4v-0.9l0.6-1.5l-0.7-0.3l-0.5-1.5l-1.9-1.2
	L77.3,97l-1.9-1.9h-4.3l-1.2-0.3l-0.6-0.3h-0.9L65.5,94L63.7,97l-2.2,2.2l-2.2,1.6l-2.5-5l-2.5-5.6l-0.6-3.1v-4.3v-6.2v-1.9l3.1,1.9
	h3.7c1.5,0,4.7-1.2,6.2-1.9l1.2,3.7l1.2,2.5l-1.2,5l-1.2,1.2l6.8,5l3.7,3.1l6.2,3.7H86z"/>
<path class="st2" d="M89,102.6l-4.3-1.9l-0.6-1.9l-1.2,1.9l-0.6,3.1l-2.5,1.9l2.5,1.9h2.5L86,110l-0.6,4.3l-1.2,1.2l3.1,1.9h1.2
	l3.1-3.1v2.5l2.5,3.7l1.9,2.5l1.2-2.5l1.2,1.9l3.7,1.2l1.2-1.2c0.6-0.6,2.1-2,3.1-2.5c1-0.5,0.8,0.2,0.6,0.6l3.7-0.6v2.5l3.1,1.9
	l3.7-3.7l3.7-0.6l2.5-3.7l1.2-1.9l-2.5-0.6l3.1-5l1.2-5h-1.2l-1.9,1.2h-4.3V102l1.9-3.1l-1.9-2.5v-3.1h-1.9V89l-0.6-3.7
	c0,0-3.1,1.2-4.3,1.2c-1.2,0-3.1-1.9-3.1-1.9l-1.9,1.9l-1.2,3.7l-1.2,1.2v3.1l-3.1-3.1h-3.7l-2.5,3.1v5.6l-1.2,1.9l-0.6-1.9
	l-1.2,0.6L89,102.6z"/>
</svg>
