<svg width="57" height="43" viewBox="0 0 57 43" fill="none" xmlns="http://www.w3.org/2000/svg">
<path id="KR-28" d="M31.8646 8.8023L32.0741 4.41289L34.1503 3.46186L34.4648 0.901367L39.6211 2.07188L42.0982 2.29898L50.9957 9.41893L55.5611 10.9435L55.4032 12.423L56.0922 12.8133L51.8629 18.1781L52.0184 22.9279L55.9666 26.3484L55.9989 27.7463L55.1508 28.6807L55.1221 29.4577L55.4355 30.8167L54.3076 31.7877L55.4032 33.5618H53.3029L52.5773 34.9999L51.0747 34.379L50.918 32.864L51.4825 30.7268L50.6668 30.1047L50.3534 30.1815L51.0747 30.7646L50.918 31.6588L50.1967 32.0845L49.8523 29.4825L49.4755 29.3264L49.5377 32.0077L50.0388 32.2797L49.4755 33.0904L47.3051 35.4314L43.3947 34.9597L39.0075 40.4333L35.1837 40.4724H35.027L33.5224 40.5883L33.1145 41.8692L31.9232 41.8301L32.9255 41.5191L33.5523 39.3465H36.1537L35.6214 40.3163H39.0063L43.299 34.9976L41.7011 34.4926L38.4741 31.2685L37.345 26.2171L36.7505 28.9373L34.9959 28.8202L35.4337 27.8492L34.8392 26.9941L35.6537 26.8771L35.0892 26.411L35.216 25.7499L34.2424 27.2661L33.0834 27.1502L32.8011 26.6842L33.2401 25.0521L32.9901 24.0019L33.7113 23.9628L33.3047 22.9906L34.2436 21.2024L37.8174 19.802L39.2898 20.268L38.3808 19.6317L38.1918 18.2846L36.9383 19.4519L35.3093 19.6069L35.3727 18.0504L34.4947 17.5844L34.1503 16.7672L35.3093 16.8843L35.1215 15.4059H34.4314L34.3704 14.4313H33.7424L33.6491 13.9251L34.4648 13.5762L34.527 11.9026L31.3933 13.1078L31.2044 13.847L30.7343 13.3799L30.0131 13.6519L27.2549 16.0315L29.8875 13.5738L34.5569 11.6661L33.5546 10.4195L32.6767 10.2646L31.8646 8.8023ZM1.11965 10.5425L3.21996 11.5951L3.31324 12.0233L4.34784 11.7122L4.97458 13.5407L6.04147 14.0848L9.58184 13.5797L9.26847 15.2911L6.82371 14.7861L4.59783 15.5253L4.53563 14.8642H4.12777L2.90659 15.9925L3.34554 13.5029L1.02637 11.2451L1.11965 10.5425ZM24.5614 14.2787L25.4704 15.135L25.4393 15.6802L29.7021 16.8464L30.3599 17.9357L31.3622 18.4017L31.8646 20.5803L29.1699 22.2526L27.5073 22.1745L26.7873 21.4756L25.596 22.9528L23.0568 24.0811L20.9887 26.7244L16.1937 30.1827L14.3446 29.9497L12.7777 30.8427L12.7143 30.2217L13.4045 29.8339L13.1844 28.5127L12.0565 27.7357L10.5841 28.7067L11.6498 27.6186L11.0853 26.7635L10.2074 27.0344V27.9675L9.45625 27.3454L9.17518 28.2395L8.54843 27.3844L7.23157 27.2673L8.26497 26.5293L7.70162 26.3342L7.85831 25.207L7.19927 25.2839L6.41704 24.4276L6.19697 23.6127L6.69692 22.7967L8.67163 22.7576L13.3734 19.4531L20.0163 19.1421L21.6155 18.0137L22.43 14.824L24.5614 14.2787ZM12.8088 31.5819L12.9344 32.5529L13.8745 32.864L14.8146 34.379L16.1327 34.9999L16.0382 35.6989L15.2859 35.6209L15.976 36.1259L15.1292 36.709V37.5239L13.2502 38.0289L12.1211 36.942L12.5601 35.4659L12.2467 34.6511L10.8365 34.301L11.8089 32.5908L11.9022 31.4258L12.8088 31.5819Z" fill="#E67D40" stroke-width="0.5"/>
</svg>
