<svg width="188" height="192" viewBox="0 0 188 192" fill="none" xmlns="http://www.w3.org/2000/svg">
<path id="KR-41" d="M15.8444 72.4332L13.8935 70.732L13.8044 70.0503L14.75 69.4833L15.5195 68.1589L15.3412 66.798L15.7564 65.5504L17.529 63.848L18.4757 64.1871L20.5158 63.848L23.9448 65.8528H25.6892L26.6359 65.0956L27.8477 66.4566L25.9262 69.6345L23.709 70.9955L20.7527 70.6174L19.8647 71.2223L18.2388 71.2979L17.0574 72.9235L15.8444 72.4332ZM27.7879 139.053L27.3749 139.654L26.9902 139.353L26.7544 139.841L25.1871 138.827L24.6839 139.053L22.971 138.489L22.8808 137.813L21.9646 138.002L22.2004 138.865L21.6678 139.24L23.0861 140.63L23.2046 140.142L23.7665 140.706L24.7719 140.556L25.0088 141.456L25.2164 140.968L25.6881 141.006L26.1608 141.644L28.4965 141.044L29.3247 139.655L28.378 139.054H27.7879V139.053ZM19.0376 88.9024L18.979 87.7706L19.5409 86.751L19.2441 86.1839L17.529 86.2595L16.7618 85.8059L15.726 86.0717L15.6368 86.751L17.2041 88.4488L19.3039 89.6184L19.9256 90.4868L20.3093 89.8453L19.7778 89.2782L19.0376 88.9024ZM6.11815 141.23L5.85074 140.592L4.81605 141.307L4.72691 139.766L4.28347 139.728L3.95738 138.039L3.277 137.552L2.71508 137.852L2.92157 138.378L1.59125 141.232L1.68039 143.709L1 144.722L2.41833 144.498L2.1825 143.973L2.62594 143.596L3.0705 145.06L4.37035 144.648L4.51929 145.474L3.78023 145.849L4.19433 146.3L6.17457 145.925L6.85496 146.187L7.00277 145.587L8.00925 145.699L8.06792 145.061L9.81234 143.561L9.48625 143.223L6.11815 141.23ZM13.036 81.5408L12.623 81.3896L11.2036 83.1274L10.0222 82.7116L8.51362 83.1652L8.63096 83.7312L9.96127 84.5629L11.2622 83.9958L12.3251 84.7897L12.2371 85.6959L12.7697 85.4691L14.3358 86.0728L14.0109 85.2044L14.6608 84.4117L13.4478 83.2031L13.036 81.5408ZM106.591 1.66101L100.316 6.53671L99.187 8.62973L94.7989 13.1847H91.6373L86.3668 11.0435L83.5561 12.8272L80.3945 14.9684L77.2329 18.1784L73.3683 23.8858L75.476 24.9558L77.5849 29.2369L84.6878 29.568L88.4768 31.7332L89.1797 35.3006L87.7738 36.3706L87.4218 38.5118L84.9631 37.798H81.8015L81.4495 42.078L79.6927 43.1492L80.0447 46.0029L82.1513 47.0729L81.8004 54.5652L79.3406 55.9926L77.5838 53.1389L75.827 51.7126L77.2317 46.7178L75.027 43.895L72.3212 43.9775L71.9624 47.074L69.8547 49.2152L65.9427 45.3946L65.1077 45.5172L64.7986 46.476L66.1176 51.1203L65.5704 53.2569L69.5038 54.2077L70.9097 55.2777L74.7742 60.9863L67.3949 63.1263H64.2028L63.1207 68.3228L59.7391 68.5244L58.4799 69.127L56.2774 71.3414L52.2661 70.7365L49.9902 68.899L49.3099 70.2405L48.098 70.3539L47.3296 71.1478L48.5708 73.1515L47.5948 77.9894L48.8066 80.0297L48.8958 81.7298L48.2447 83.58L49.5457 84.1837L49.487 85.6191L48.6881 86.1473L50.5804 89.6196L51.6737 93.3932L54.3389 96.9389L57.1022 94.6683L59.0068 93.8343L59.6996 92.0323L61.3865 90.5819L63.7233 90.8019L72.117 97.6984L76.4227 99.1763L77.7226 98.0444L78.8746 95.2159L80.2952 95.5928L81.8625 97.553L84.5818 98.8727L88.663 97.0259L89.3716 96.6101L89.5498 93.0645L90.4943 91.857L96.2894 91.4045L97.5328 90.4983L97.6197 87.0638L98.862 85.854L98.8304 84.4953L99.4533 83.8916L100.872 83.2878L101.906 82.1548L104.536 82.7586L107.494 82.3805L108.823 82.6073L109.858 83.8526L109.977 89.0262L110.983 90.3459L111.071 92.4596L112.314 94.4208L110.688 99.1728L110.716 100.53L111.132 101.209L112.462 101.021L113.793 100.153L116.569 99.4741L117.871 98.5313L118.757 99.851L119.496 102.604L118.995 103.207L117.014 103.923L115.891 105.054L115.446 107.916L116.777 108.481V109.16L115.328 111.118L114.618 111.646L113.908 111.458L113.433 112.135L113.94 112.776L112.047 114.582L108.676 114.883L104.567 117.255L103.797 115.862V113.905L100.34 114.243L95.6384 116.879L92.9473 116.993L91.5854 116.429L89.5476 117.256L88.9563 117.106L86.0576 110.592L83.3383 112.024L82.7177 112.137L82.0678 111.534L81.7135 107.993L81.0929 107.39L81.2103 105.357L76.9237 100.985L72.9339 106.182L73.0806 110.781L76.8052 114.095L76.8357 115.45L76.0357 116.355L76.0086 117.107L76.3043 118.424L75.2402 119.364L74.6197 119.852L74.2924 121.083H75.2064L75.678 121.76L71.2143 120.895L70.209 122.099L71.1263 122.812L70.6829 124.543L68.4657 126.425L67.6081 126.349L67.0767 127.138L65.3898 127.552L65.0953 128.641L65.6866 128.791L65.717 129.281L57.2906 132.212L53.9801 134.768L52.9454 134.467L53.4779 135.593L52.0292 137.171L51.3781 137.134L51.3476 136.381L48.7762 135.593L51.1705 138.11L51.5248 139.799L52.028 140.213L51.6421 142.579L51.1107 143.067L49.8684 143.03L49.6021 143.856L49.7206 144.606L50.9629 144.681L51.2292 145.544H49.8684L50.1933 146.521L49.513 146.708L48.9815 147.758L49.4249 148.059L50.0455 147.045L50.8433 146.971L51.9964 148.772L52.7953 147.91L52.5595 147.196L53.2681 145.657L54.0669 144.907L55.0418 145.695L55.6917 145.62L56.2537 146.596L56.6689 146.034L57.4666 146.672L57.2308 145.246L58.3535 142.881L58.6491 144.758L60.8968 146.184L60.3349 146.972L60.3055 148.136L60.9555 148.849L61.3696 147.873L61.1619 147.047L61.8423 146.184L61.4576 144.307L58.5002 142.769L58.2339 141.118L57.6426 140.629L57.7905 139.69L56.7276 139.165L55.3081 139.239L54.2148 137.7L52.9138 136.948L54.1561 135.634L54.0681 134.883L57.6742 132.328L64.9769 129.772L66.1007 129.696L70.0623 132.891L75.5325 134.958L79.0213 134.507L80.3223 136.911L81.5036 137.401L82.1242 138.264L83.5437 137.776L82.5688 138.715L82.421 139.803L80.6461 137.512L80.1147 137.925L78.4887 136.948L78.6659 135.896L77.6605 136.272L77.2769 137.174L78.1344 137.812L78.3409 138.639L77.0986 138.001L76.1824 138.526L77.0095 140.516L75.9748 141.493L76.7138 141.717L75.9161 141.942L76.2704 142.505L74.201 145.545L73.8174 144.87L72.7229 144.532L73.374 143.744L72.8402 142.993L72.6924 140.29L69.7069 141.267L69.3221 140.027L68.3167 140.178L65.3007 139.165L64.2953 140.441L64.4736 141.267L62.5509 141.679L62.9944 143.669L63.5856 143.444L64.0302 144.345L62.9955 145.246L62.9661 146.335L64.0595 148.098L62.464 148.136L61.1631 149.825L62.4934 152.788L61.2815 153.877L62.4042 153.839L62.9673 153.163L63.2629 153.614L64.7117 153.163L64.8302 153.913L65.717 153.726L64.2085 155.825L63.2031 156.163L63.5585 156.614L64.2085 156.426L64.6519 157.1L65.0367 158.524L64.4454 159.124L65.391 160.024L65.8355 158.187L66.8397 157.887L67.3735 156.838L67.994 156.8L68.0832 157.175L69.6211 156.013L71.9556 152.113L74.8239 152.375L75.238 151.699L75.7412 151.737L76.3923 149.936L76.3618 151.324L77.1313 151.549L76.8944 152.375L77.4563 152.675L75.0315 154.175L80.2952 154.25L80.3539 154.663L77.9584 154.925L79.0236 155.562L78.9942 156.088L78.0769 155.675L77.6932 156.612L76.5412 157.175L75.3576 156.35L73.0817 158.561L72.8741 159.61L73.673 161.673L73.1393 166.655L72.7263 167.181L72.46 167.217L71.3949 168.865L71.3655 169.801L71.7796 170.7L75.7119 170.662L76.6281 171.075L76.9531 173.469L76.3923 173.244L75.4456 173.957L75.5043 174.892L76.1249 175.491L78.1649 175.265L79.9082 175.828L81.5939 178.785L81.9189 179.944L81.1798 179.533L81.7417 180.581L83.8991 181.478L84.4024 183.61L86.5902 183.235L88.1868 184.282L89.1617 189.495L90.2742 189.431L91.2074 188.047L93.0556 187.12L101.558 189.134L102.496 188.433L103.555 188.439L107.118 187.107L110.508 184.742L113.416 184.645L116.781 186.276L118.288 188.331L120.482 190.143L126.22 190.942L129.332 190.677L131.043 189.636L132.8 189.235L133.589 188.731L135.508 187.316L137.997 187.472L139.018 185.924L140.018 185.473L140.204 183.062L139.864 181.822L142.109 179.999L145.592 178.382L145.39 177.87L146.436 176.562L146.493 175.376L149.126 172.439L150.03 173.8L151.699 173.775L151.392 176.14L153.193 172.454L158.037 173.347L162.604 169.067L165.414 168.71L166.118 159.793H167.875L169.631 161.933H171.74L174.737 154.335L177.719 153.668L178.414 145.168L177.712 141.244L179.468 139.817L179.116 131.256L182.982 121.982L183.333 117.344L181.134 116.532L180.248 113.81L183.369 110.223L183.781 109.201L186.105 108.398L187 105.902L185.568 104.132L185.139 102.586L182.613 102.777L181.653 101.876L179.08 101.162L175.041 101.024L170.191 96.8003L167.163 96.4291L165.117 94.7634L162.531 93.5949L158.434 95.1964L156.988 94.1539L155.461 91.9452L157.43 87.9298L157.779 82.9132L156.028 83.5456L155.186 83.3875L154.445 84.115L153.738 83.9454L153.873 81.6324L156.301 79.5131L156.912 78.1131L155.425 74.1058L155.432 73.0587L156.353 71.865L156.129 69.8648L155.399 68.4946L156.062 66.7521L158.609 65.8929L160.634 63.5318L163.582 62.88L164.362 62.3072L165.488 57.7717L164.567 53.1595L162.942 51.3426L160.675 50.9004L158.207 49.7192L158.113 46.6307L157.122 45.941L153.497 46.3317L150.013 44.5846L148.6 42.7631L148.261 41.1295L147.807 32.5374L146.204 30.2829L145.377 30.1775L144 31.4777L143.215 30.3802L141.643 29.7055L139.97 29.9289L137.302 30.8568L135.934 32.4652L135.346 32.1376L133.187 29.6482L131.658 29.4042L130.316 28.0398L129.965 25.7863L130.577 24.501L130.859 21.9543L132.089 20.9026L129.87 19.8991L129.231 19.9449L127.644 21.4388L125.747 24.1791L123.004 24.3647L121.153 23.4149L120.58 22.3427L120.71 19.7685L119.591 20.1236L119.389 18.8932L120.092 16.7532L118.334 15.3258L117.28 9.26097H112.011V7.12097L113.416 6.04983L108.082 1L106.591 1.66101ZM32.4604 82.0678L31.2485 81.1616L31.2779 80.5945L28.4694 80.1786L26.1033 78.2896L26.074 75.6443L27.2271 73.2626L26.1924 72.6199L22.5558 74.1322L22.4667 78.0261L22.2004 78.4797L21.0472 78.2151L20.7516 78.6687L22.8514 80.6323L25.9262 82.2935L27.0793 83.9557L26.7826 86.3363L28.2009 87.0523L27.9944 87.5438H28.8226L28.5857 86.6754L32.0158 84.4094L32.4604 82.0678ZM47.7449 86.1851L47.9818 85.5424L48.8382 85.3167L48.8089 84.7886L47.5372 84.2593L47.1536 83.2397L48.0405 79.6127L47.0656 78.7432L46.7395 77.648L46.8873 76.2492L47.9818 74.6236L48.1296 73.3772L46.5917 71.4491L46.77 70.2772L46.2081 68.8406L41.1238 65.4736L38.699 62.2957L37.5763 62.0311L36.9252 62.9384L34.2646 63.1286L33.319 65.4358L29.3868 67.5919L30.0672 71.5259L29.5933 74.5869L29.978 79.1212L33.3484 80.0286L33.7918 80.6701L33.5266 81.5774L35.0634 83.0873L35.5667 85.2777L35.3884 86.9767L34.5907 87.9963L31.0138 88.6756L31.9312 89.2794L32.3148 91.0528L31.5159 91.5809L31.6638 91.9589L32.1354 91.8833L33.5549 93.2409L34.9743 93.4677L35.3579 94.1849L41.3889 94.5996L41.4194 93.4299L42.4247 93.9202L43.0758 92.864L45.5581 93.9958L46.6222 93.9202L47.5384 92.0334L49.0774 91.5809L49.1361 90.9393L47.7449 86.1851ZM44.2854 136.349L43.2507 136.499L42.5714 135.635L40.827 136.274L40.3836 136.124L39.9988 136.8L40.1759 137.59L38.4327 137.44L38.2544 138.867L37.6327 139.168L38.1359 139.505L38.55 141.421L37.9881 141.608L38.1664 143.562L40.2933 143.524L40.6487 143.974L40.3531 144.574L41.0628 144.5L41.5649 143.674L42.5714 143.224L42.2758 142.247L43.9897 142.134V141.571L43.3985 141.721L43.429 141.119L42.6888 140.631L43.517 140.293L44.1082 140.593L43.8724 139.73L44.9951 140.557L45.4679 140.069L45.7635 138.303L45.2309 137.288L44.2854 136.349Z" fill="#C2E56C" stroke-width="0.5"/>
</svg>
