<svg width="180" height="22" viewBox="0 0 180 22" fill="none" xmlns="http://www.w3.org/2000/svg">
<g id="Layer_1" clip-path="url(#clip0_42_80)">
<path id="Vector" d="M22.0299 0.29787H18.719V0.712763C19.6941 1.15957 19.7905 1.87234 19.8012 2.12766V2.20212V2.23404V19.7872C19.8012 19.7872 19.8012 19.7979 19.8012 19.8085V19.883C19.8012 20.1383 19.6941 20.8404 18.719 21.2872V21.7021H25.3408V21.2872C24.4515 20.8723 24.2908 20.2553 24.2693 19.9468V2.04255C24.2908 1.74468 24.4622 1.11702 25.3408 0.702125V0.287231H22.0299V0.29787Z" fill="white"/>
<path id="Vector_2" d="M126.79 0.29787H123.479V0.712763C124.454 1.15957 124.55 1.87234 124.561 2.12766V2.20212V2.23404V19.7872C124.561 19.7872 124.561 19.7979 124.561 19.8085V19.883C124.561 20.1383 124.454 20.8404 123.479 21.2872V21.7021H130.101V21.2872C129.211 20.8723 129.051 20.2553 129.029 19.9468V2.04255C129.051 1.74468 129.222 1.11702 130.101 0.702125V0.287231H126.79V0.29787Z" fill="white"/>
<path id="Vector_3" d="M98.4166 0.29787H95.1057V0.712763C96.0808 1.15957 96.1772 1.87234 96.1879 2.12766V2.20212V2.23404V19.7872C96.1879 19.7872 96.1879 19.7979 96.1879 19.8085V19.883C96.1879 20.1383 96.0808 20.8404 95.1057 21.2872V21.7021H101.728V21.2872C100.838 20.8723 100.677 20.2553 100.656 19.9468V2.04255C100.677 1.74468 100.849 1.11702 101.728 0.702125V0.287231H98.4166V0.29787Z" fill="white"/>
<path id="Vector_4" d="M47.8101 0.29787H44.4991V0.712763C45.4742 1.17021 45.5706 1.87234 45.5814 2.12766V2.20212V2.23404V18.0532L35.4772 0.29787H28.8125V0.712763C29.7876 1.17021 29.884 1.67021 29.8947 1.84042V1.89361V1.91489V19.7872C29.8947 19.7872 29.8947 19.7979 29.8947 19.8191V19.8936C29.8947 20.1489 29.7876 20.8511 28.8125 21.3085V21.7234H35.4343V21.3085C34.545 20.8936 34.3843 20.2766 34.3628 19.9681V5.25532L43.7277 21.7021H50.6709V21.2872C50.0602 20.9043 50.0709 20.0957 50.0709 20.0957V2.04255C50.0923 1.74468 50.2638 1.11702 51.1424 0.702125V0.287231H47.8315L47.8101 0.29787Z" fill="white"/>
<path id="Vector_5" d="M180 0.712776V0.297882H173.378V0.712776C174.353 1.15958 174.45 1.87235 174.46 2.12767V2.20214V2.23405V18.0532L164.356 0.297882H157.691V0.712776C158.666 1.17022 158.763 1.67022 158.774 1.84044V1.89363V1.9149V19.7872C158.774 19.7872 158.774 19.7979 158.774 19.8192V19.8936C158.774 20.1489 158.666 20.8511 157.691 21.3085V21.7234H164.313V21.3085C163.424 20.8936 163.263 20.2766 163.242 19.9681V5.25533L172.607 21.7021H179.55V21.2872C178.939 20.9468 178.95 20.0958 178.95 20.0958V2.04256C178.971 1.74469 179.143 1.11703 180.021 0.702137L180 0.712776Z" fill="white"/>
<path id="Vector_6" d="M15.2688 0.297882H0V0.712776C0.975058 1.15958 1.07149 1.86171 1.08221 2.11703V2.1915V2.21278V19.766C1.08221 19.766 1.08221 19.7766 1.08221 19.7872V19.8617C1.08221 20.117 0.975058 20.8192 0 21.266V21.6809H6.62182V21.266C5.73248 20.8511 5.57176 20.2341 5.55033 19.9255V12.6064H10.8221C10.8221 12.6064 11.465 12.5532 12.0221 13.3298H12.4507V8.54256H12.0221C11.4757 9.30852 10.8221 9.26597 10.8221 9.26597H5.55033V2.22341H11.6364C13.3937 2.22341 15.183 3.14895 15.9867 3.52129L16.3831 3.38299L15.2688 0.30852V0.297882Z" fill="white"/>
<path id="Vector_7" d="M120.05 0.297882H114.735H104.963L103.935 3.11703L104.321 3.25533C105.349 2.9149 107.76 2.24469 109.592 2.22341H110.267V19.7766C110.267 19.7766 110.267 19.7872 110.267 19.7979V19.8723C110.267 20.1277 110.16 20.8298 109.185 21.2766V21.6915H115.807V21.2766C114.918 20.8617 114.757 20.2447 114.735 19.9362V2.22341H115.41C117.243 2.24469 119.664 2.9149 120.682 3.25533L121.068 3.11703L120.039 0.297882H120.05Z" fill="white"/>
<path id="Vector_8" d="M65.3074 12.7128C65.3074 12.7128 65.9503 12.6596 66.5075 13.4362H66.9361V8.64895H66.5075C65.961 9.4149 65.3074 9.37235 65.3074 9.37235H60.0357V2.22341H65.3074C67.0325 2.22341 68.9719 2.97873 69.8827 3.38299L70.2791 3.24469L69.2077 0.297882H54.4854V0.712776C55.4604 1.15958 55.5568 1.87235 55.5676 2.12767V2.20214V2.23405V19.7872C55.5676 19.7872 55.5676 19.7979 55.5676 19.8192V19.8936C55.5676 20.1489 55.4604 20.8511 54.4854 21.3085V21.7234H69.5612L70.6006 18.8617L70.2041 18.7234C69.2827 19.0851 67.2468 19.7979 65.4574 19.7979H60.025V12.7341H65.2967L65.3074 12.7128Z" fill="white"/>
<path id="Vector_9" d="M144.03 0C137.665 0 132.501 4.92553 132.501 11C132.501 17.0745 137.665 22 144.03 22C150.395 22 155.559 17.0745 155.559 11C155.559 4.92553 150.395 0 144.03 0ZM147.78 19.6489C143.73 21.2128 139.851 18.3298 137.633 13.6702C135.469 9.09575 136.444 4.03191 140.473 2.46809C144.437 0.925532 148.841 3.64894 150.855 8.39362C152.87 13.1383 152.291 17.9149 147.78 19.6596V19.6489Z" fill="white"/>
<path id="Vector_10" d="M81.4013 0.297882H73.333V0.712776C74.3081 1.15958 74.4045 1.87235 74.4152 2.12767V2.20214V2.23405V19.7872C74.4152 19.7872 74.4152 19.7979 74.4152 19.8192V19.8936C74.4152 20.1489 74.3081 20.8511 73.333 21.3085V21.7234H81.4013C87.5946 21.7234 92.6199 16.9362 92.6199 11.0213C92.6199 5.10639 87.6053 0.297882 81.4013 0.297882ZM85.0444 19.4255C84.3265 19.7021 83.6515 19.7872 82.9121 19.8404H78.8833V2.30852H80.7477C83.7158 2.58512 86.5445 4.94682 88.0446 8.45746C90.0054 13.0745 89.4482 17.7234 85.0551 19.4149L85.0444 19.4255Z" fill="white"/>
</g>
<defs>
<clipPath id="clip0_42_80">
<rect width="180" height="22" fill="white"/>
</clipPath>
</defs>
</svg>
