<svg width="15" height="15" viewBox="0 0 15 15" fill="none" xmlns="http://www.w3.org/2000/svg">
<path id="Vector" d="M8.82759 0L2.36883 6.4589L0 13.5484L1.45158 15C4.35474 14.0323 5.35356 13.6393 8.54284 12.6315L15 6.17255L14.4241 5.59666L9.97935 1.15178L8.82759 0ZM3.73535 7.54228C3.87067 7.62393 3.99766 7.71251 4.09965 7.81432C4.49972 8.21494 4.72291 8.93635 4.79961 9.47677L4.88392 10.0718L5.4773 10.1672C6.03319 10.2569 6.78724 10.5004 7.18744 10.9006C7.29053 11.0037 7.38368 11.127 7.46583 11.2633L3.22946 12.6012L2.39905 11.7708L3.73535 7.54228Z" fill="#DBDBE0"/>
</svg>
