<svg width="30" height="30" viewBox="0 0 30 30" fill="none" xmlns="http://www.w3.org/2000/svg">
<g id="Group 888">
<circle id="Ellipse 22" opacity="0.5" cx="15" cy="15" r="15" fill="#E5E5EA"/>
<path id="Vector" d="M20.265 15.693L20.258 15.707C20.2863 15.476 20.3146 15.238 20.3146 15C20.3146 14.762 20.2934 14.538 20.265 14.307L20.2721 14.321L22 12.977L20.2792 10.023L18.2468 10.835L18.2539 10.842C17.8857 10.562 17.482 10.324 17.043 10.142H17.0501L16.7243 8H13.2757L12.9641 10.149H12.9712C12.5321 10.331 12.1285 10.569 11.7602 10.849L11.7673 10.842L9.72787 10.023L8 12.977L9.72787 14.321L9.73495 14.307C9.70663 14.538 9.68538 14.762 9.68538 15C9.68538 15.238 9.70663 15.476 9.74203 15.707L9.73495 15.693L8.24785 16.848L8.01416 17.03L9.73495 19.97L11.7744 19.165L11.7602 19.137C12.1356 19.424 12.5392 19.662 12.9853 19.844H12.9641L13.2828 22H16.7172C16.7172 22 16.7385 21.874 16.7597 21.706L17.0288 19.851H17.0217C17.4608 19.669 17.8715 19.431 18.2468 19.144L18.2327 19.172L20.2721 19.977L21.9929 17.037C21.9929 17.037 21.8938 16.953 21.7592 16.855L20.265 15.693ZM14.9965 17.45C13.6297 17.45 12.518 16.351 12.518 15C12.518 13.649 13.6297 12.55 14.9965 12.55C16.3632 12.55 17.475 13.649 17.475 15C17.475 16.351 16.3632 17.45 14.9965 17.45Z" fill="#F3F3F8"/>
</g>
</svg>
