<svg width="14" height="14" viewBox="0 0 14 14" fill="none" xmlns="http://www.w3.org/2000/svg">
<path id="Vector" d="M12.265 7.693L12.258 7.707C12.2863 7.476 12.3146 7.238 12.3146 7C12.3146 6.762 12.2934 6.538 12.265 6.307L12.2721 6.321L14 4.977L12.2792 2.023L10.2468 2.835L10.2539 2.842C9.88569 2.562 9.48204 2.324 9.04299 2.142H9.05008L8.72433 0H5.27567L4.96409 2.149H4.97117C4.53212 2.331 4.12848 2.569 3.76024 2.849L3.76732 2.842L1.72787 2.023L0 4.977L1.72787 6.321L1.73495 6.307C1.70663 6.538 1.68538 6.762 1.68538 7C1.68538 7.238 1.70663 7.476 1.74203 7.707L1.73495 7.693L0.24785 8.848L0.014163 9.03L1.73495 11.97L3.77441 11.165L3.76024 11.137C4.13556 11.424 4.5392 11.662 4.98533 11.844H4.96409L5.28275 14H8.71725C8.71725 14 8.73849 13.874 8.75974 13.706L9.02883 11.851H9.02175C9.4608 11.669 9.87152 11.431 10.2468 11.144L10.2327 11.172L12.2721 11.977L13.9929 9.037C13.9929 9.037 13.8938 8.953 13.7592 8.855L12.265 7.693ZM6.99646 9.45C5.62974 9.45 4.51796 8.351 4.51796 7C4.51796 5.649 5.62974 4.55 6.99646 4.55C8.36318 4.55 9.47496 5.649 9.47496 7C9.47496 8.351 8.36318 9.45 6.99646 9.45Z" fill="#AEAEB2"/>
</svg>
