<svg width="17" height="11" viewBox="0 0 17 11" fill="none" xmlns="http://www.w3.org/2000/svg">
<path id="Vector" d="M15.4545 0H1.54545L0 7.07143V11H17V7.07143L15.4545 0ZM7.72727 6.28571H6.18182V7.85714H4.63636V6.28571H3.09091V4.71429H4.63636V3.14286H6.18182V4.71429H7.72727V6.28571ZM11.5909 4.71429C11.1644 4.71429 10.8182 4.36229 10.8182 3.92857C10.8182 3.49486 11.1644 3.14286 11.5909 3.14286C12.0175 3.14286 12.3636 3.49486 12.3636 3.92857C12.3636 4.36229 12.0175 4.71429 11.5909 4.71429ZM13.1364 7.85714C12.7098 7.85714 12.3636 7.50514 12.3636 7.07143C12.3636 6.63771 12.7098 6.28571 13.1364 6.28571C13.5629 6.28571 13.9091 6.63771 13.9091 7.07143C13.9091 7.50514 13.5629 7.85714 13.1364 7.85714Z" fill="black"/>
</svg>
