<svg width="20" height="15" viewBox="0 0 20 15" fill="none" xmlns="http://www.w3.org/2000/svg">
<path d="M6.55355 0.984131C5.74243 0.984131 4.96453 1.30222 4.39099 1.86841C3.81744 2.4346 3.49523 3.20253 3.49523 4.00324C3.49523 4.80396 3.81744 5.57189 4.39099 6.13808C4.96453 6.70427 5.74243 7.02236 6.55355 7.02236C7.36467 7.02236 8.14256 6.70427 8.71611 6.13808C9.28965 5.57189 9.61187 4.80396 9.61187 4.00324C9.61187 3.20253 9.28965 2.4346 8.71611 1.86841C8.14256 1.30222 7.36467 0.984131 6.55355 0.984131ZM13.9809 3.57194C13.2857 3.57194 12.6189 3.84459 12.1273 4.3299C11.6357 4.8152 11.3595 5.47342 11.3595 6.15975C11.3595 6.84608 11.6357 7.50431 12.1273 7.98961C12.6189 8.47492 13.2857 8.74757 13.9809 8.74757C14.6761 8.74757 15.3429 8.47492 15.8345 7.98961C16.3261 7.50431 16.6023 6.84608 16.6023 6.15975C16.6023 5.47342 16.3261 4.8152 15.8345 4.3299C15.3429 3.84459 14.6761 3.57194 13.9809 3.57194ZM6.55355 8.74757C4.09815 8.74757 1.95692 9.7312 0.890873 10.3178C0.340375 10.6283 0 11.1976 0 11.8273V14.7858H6.99045V12.3109C6.99045 11.086 7.6712 9.93789 8.7722 9.32544C8.89453 9.25644 9.03495 9.18743 9.1835 9.10979C8.3796 8.89414 7.48852 8.74757 6.55355 8.74757ZM13.9809 9.61017C12.1092 9.61017 10.4537 10.3745 9.63235 10.8299C9.08098 11.137 8.73806 11.7045 8.73806 12.3109V14.7858H19.2237V12.3109C19.2237 11.7045 18.88 11.137 18.3277 10.8299C17.5072 10.3745 15.8526 9.61017 13.9809 9.61017Z" fill="#161616"/>
</svg>
