<svg width="16" height="20" viewBox="0 0 16 20" fill="none" xmlns="http://www.w3.org/2000/svg">
<path d="M7.92361 19.1818C12.2863 19.1818 15.8238 15.6443 15.8238 11.2816C11.4611 11.2816 7.92361 14.8191 7.92361 19.1818ZM2.30571 8.86766C2.30571 10.079 3.28884 11.0622 4.5002 11.0622C4.96543 11.0622 5.38677 10.9217 5.74667 10.6759L5.72911 10.8427C5.72911 12.0541 6.71225 13.0372 7.92361 13.0372C9.13496 13.0372 10.1181 12.0541 10.1181 10.8427L10.1005 10.6759C10.4517 10.9217 10.8818 11.0622 11.347 11.0622C12.5584 11.0622 13.5415 10.079 13.5415 8.86766C13.5415 7.98987 13.0236 7.24374 12.2863 6.89262C13.0236 6.5415 13.5415 5.79538 13.5415 4.91758C13.5415 3.70622 12.5584 2.72309 11.347 2.72309C10.8818 2.72309 10.4604 2.86354 10.1005 3.10932L10.1181 2.94254C10.1181 1.73118 9.13496 0.748047 7.92361 0.748047C6.71225 0.748047 5.72911 1.73118 5.72911 2.94254L5.74667 3.10932C5.39555 2.86354 4.96543 2.72309 4.5002 2.72309C3.28884 2.72309 2.30571 3.70622 2.30571 4.91758C2.30571 5.79538 2.82361 6.5415 3.56096 6.89262C2.82361 7.24374 2.30571 7.98987 2.30571 8.86766ZM7.92361 4.69813C9.13496 4.69813 10.1181 5.68126 10.1181 6.89262C10.1181 8.10398 9.13496 9.08711 7.92361 9.08711C6.71225 9.08711 5.72911 8.10398 5.72911 6.89262C5.72911 5.68126 6.71225 4.69813 7.92361 4.69813ZM0.0234375 11.2816C0.0234375 15.6443 3.56096 19.1818 7.92361 19.1818C7.92361 14.8191 4.38609 11.2816 0.0234375 11.2816Z" fill="#161616"/>
</svg>
