<svg width="19" height="18" viewBox="0 0 19 18" fill="none" xmlns="http://www.w3.org/2000/svg">
<path d="M2.4731 3.23113V0.807617H4.12183V3.23113H6.59492V4.8468H4.12183V7.27031H2.4731V4.8468H0V3.23113H2.4731ZM4.94619 8.07815V5.65464H7.41929V3.23113H13.1898L14.6984 4.8468H18.9604V17.7722H2.4731V8.07815H4.94619ZM10.7168 15.3487C12.992 15.3487 14.8386 13.5391 14.8386 11.3095C14.8386 9.07987 12.992 7.27031 10.7168 7.27031C8.4415 7.27031 6.59492 9.07987 6.59492 11.3095C6.59492 13.5391 8.4415 15.3487 10.7168 15.3487ZM8.24365 11.3095C8.24365 12.6505 9.3483 13.733 10.7168 13.733C12.0852 13.733 13.1898 12.6505 13.1898 11.3095C13.1898 9.96849 12.0852 8.88599 10.7168 8.88599C9.3483 8.88599 8.24365 9.96849 8.24365 11.3095Z" fill="#161616"/>
</svg>
