<svg width="17" height="15" viewBox="0 0 17 15" fill="none" xmlns="http://www.w3.org/2000/svg">
<path id="Vector" d="M13.14 11.8919C12.2366 11.8919 11.5057 12.5912 11.5057 13.4459C11.5057 14.3007 12.2366 15 13.14 15C14.0434 15 14.7826 14.3007 14.7826 13.4459C14.7826 12.5912 14.0434 11.8919 13.14 11.8919ZM4.92737 11.8919C4.02397 11.8919 3.29304 12.5912 3.29304 13.4459C3.29304 14.3007 4.02397 15 4.92737 15C5.83076 15 6.5699 14.3007 6.5699 13.4459C6.5699 12.5912 5.83076 11.8919 4.92737 11.8919ZM4.92737 10.5928L5.83076 9.03869H11.9492C12.5652 9.03869 13.1072 8.72011 13.3864 8.23835L17 2.0454H3.4573L2.68554 0H0V1.55406H1.64254L4.59886 7.94308L2.15148 12.1468H14.7826V10.5928H4.92737Z" fill="black"/>
</svg>
