<svg width="12" height="17" viewBox="0 0 12 17" fill="none" xmlns="http://www.w3.org/2000/svg">
<path id="Vector" d="M6.67194 3.62791C7.72477 3.62791 8.58618 2.81163 8.58618 1.81395C8.58618 0.816279 7.72477 0 6.67194 0C5.61911 0 4.7577 0.816279 4.7577 1.81395C4.7577 2.81163 5.61911 3.62791 6.67194 3.62791ZM3.63731 6.71163L0.5 16.5H2.96733L4.7577 11.0233L6.78454 13.2209L6.70009 16.5H9V12.0233L6.78454 9.5L7.17865 8.16279C8.42291 9.52326 9.89459 9.97674 12.0003 9.97674V8.16279C10.3107 8.16279 8.8787 7.34651 8.32719 6.43954L7.37007 4.98837C6.83409 4.18116 5.76211 3.85465 4.83371 4.22651L0.000170708 5.84651L0 9.97674H1.91424L1.91441 7.34651L3.63731 6.71163Z" fill="black"/>
</svg>
