<svg width="16" height="16" viewBox="0 0 16 16" fill="none" xmlns="http://www.w3.org/2000/svg">
<path d="M7.91571 0C3.55481 0 0.0234375 3.53928 0.0234375 7.90017C0.0234375 12.2611 3.55481 15.8003 7.91571 15.8003C12.2845 15.8003 15.8238 12.2611 15.8238 7.90017C15.8238 3.53928 12.2845 0 7.91571 0ZM5.15855 4.7401C5.81426 4.7401 6.34357 5.26941 6.34357 5.92513C6.34357 6.58084 5.81426 7.11015 5.15855 7.11015C4.50283 7.11015 3.97352 6.58084 3.97352 5.92513C3.97352 5.26941 4.50283 4.7401 5.15855 4.7401ZM7.92361 12.6403C6.12237 12.6403 4.58973 11.3288 3.97352 9.4802H11.8737C11.2575 11.3288 9.72484 12.6403 7.92361 12.6403ZM10.6887 7.11015C10.033 7.11015 9.50364 6.58084 9.50364 5.92513C9.50364 5.26941 10.033 4.7401 10.6887 4.7401C11.3444 4.7401 11.8737 5.26941 11.8737 5.92513C11.8737 6.58084 11.3444 7.11015 10.6887 7.11015Z" fill="#161616"/>
</svg>
